<?xml version="1.0" encoding="UTF-8" standalone="no"?>
<!DOCTYPE svg PUBLIC "-//W3C//DTD SVG 1.1//EN"
 "http://www.w3.org/Graphics/SVG/1.1/DTD/svg11.dtd">
<!-- Generated by graphviz version 2.38.0 (20140413.2041)
 -->
<!-- Title: G Pages: 1 -->
<svg width="296pt" height="301pt"
 viewBox="0.00 0.00 296.00 301.00" xmlns="http://www.w3.org/2000/svg" xmlns:xlink="http://www.w3.org/1999/xlink">
<g id="graph0" class="graph" transform="scale(1 1) rotate(0) translate(4 297)">
<title>G</title>
<polygon fill="white" stroke="none" points="-4,4 -4,-297 292,-297 292,4 -4,4"/>
<g id="clust1" class="cluster"><title>cluster_0</title>
<polygon fill="none" stroke="white" points="8,-68 8,-225 60,-225 60,-68 8,-68"/>
<text text-anchor="middle" x="34" y="-208.4" font-family="Times,serif" font-size="14.00">inputs</text>
</g>
<g id="clust2" class="cluster"><title>cluster_1</title>
<polygon fill="none" stroke="white" points="80,-68 80,-225 134,-225 134,-68 80,-68"/>
<text text-anchor="middle" x="107" y="-208.4" font-family="Times,serif" font-size="14.00">layer 1</text>
</g>
<g id="clust3" class="cluster"><title>cluster_2</title>
<polygon fill="none" stroke="white" points="154,-8 154,-285 208,-285 208,-8 154,-8"/>
<text text-anchor="middle" x="181" y="-268.4" font-family="Times,serif" font-size="14.00">layer 2</text>
</g>
<g id="clust4" class="cluster"><title>cluster_3</title>
<polygon fill="none" stroke="white" points="228,-88 228,-205 280,-205 280,-88 228,-88"/>
<text text-anchor="middle" x="254" y="-188.4" font-family="Times,serif" font-size="14.00">output</text>
</g>
<!-- x1 -->
<g id="node1" class="node"><title>x1</title>
<ellipse fill="none" stroke="#00008b" cx="34" cy="-134" rx="18" ry="18"/>
</g>
<!-- l1_1 -->
<g id="node4" class="node"><title>l1_1</title>
<ellipse fill="none" stroke="cyan" cx="107" cy="-94" rx="18" ry="18"/>
</g>
<!-- x1&#45;&gt;l1_1 -->
<g id="edge1" class="edge"><title>x1&#45;&gt;l1_1</title>
<path fill="none" stroke="black" d="M50.0573,-125.517C59.3764,-120.267 71.5466,-113.41 82.1549,-107.434"/>
<polygon fill="black" stroke="black" points="83.9699,-110.429 90.9644,-102.471 80.534,-104.33 83.9699,-110.429"/>
</g>
<!-- l1_2 -->
<g id="node5" class="node"><title>l1_2</title>
<ellipse fill="none" stroke="cyan" cx="107" cy="-174" rx="18" ry="18"/>
</g>
<!-- x1&#45;&gt;l1_2 -->
<g id="edge2" class="edge"><title>x1&#45;&gt;l1_2</title>
<path fill="none" stroke="black" d="M50.0573,-142.483C59.3764,-147.733 71.5466,-154.59 82.1549,-160.566"/>
<polygon fill="black" stroke="black" points="80.534,-163.67 90.9644,-165.529 83.9699,-157.571 80.534,-163.67"/>
</g>
<!-- l1_3 -->
<g id="node6" class="node"><title>l1_3</title>
<ellipse fill="none" stroke="cyan" cx="107" cy="-134" rx="18" ry="18"/>
</g>
<!-- x1&#45;&gt;l1_3 -->
<g id="edge3" class="edge"><title>x1&#45;&gt;l1_3</title>
<path fill="none" stroke="black" d="M52.1871,-134C60.2105,-134 69.9525,-134 78.9309,-134"/>
<polygon fill="black" stroke="black" points="78.9712,-137.5 88.9712,-134 78.9711,-130.5 78.9712,-137.5"/>
</g>
<!-- x2 -->
<g id="node2" class="node"><title>x2</title>
<ellipse fill="none" stroke="#00008b" cx="34" cy="-94" rx="18" ry="18"/>
</g>
<!-- x2&#45;&gt;l1_1 -->
<g id="edge4" class="edge"><title>x2&#45;&gt;l1_1</title>
<path fill="none" stroke="black" d="M52.1871,-94C60.2105,-94 69.9525,-94 78.9309,-94"/>
<polygon fill="black" stroke="black" points="78.9712,-97.5001 88.9712,-94 78.9711,-90.5001 78.9712,-97.5001"/>
</g>
<!-- x2&#45;&gt;l1_2 -->
<g id="edge5" class="edge"><title>x2&#45;&gt;l1_2</title>
<path fill="none" stroke="black" d="M46.7242,-107.21C57.8903,-119.792 74.8646,-138.918 87.7914,-153.483"/>
<polygon fill="black" stroke="black" points="85.2383,-155.879 94.494,-161.035 90.4738,-151.233 85.2383,-155.879"/>
</g>
<!-- x2&#45;&gt;l1_3 -->
<g id="edge6" class="edge"><title>x2&#45;&gt;l1_3</title>
<path fill="none" stroke="black" d="M50.0573,-102.483C59.3764,-107.733 71.5466,-114.59 82.1549,-120.566"/>
<polygon fill="black" stroke="black" points="80.534,-123.67 90.9644,-125.529 83.9699,-117.571 80.534,-123.67"/>
</g>
<!-- x3 -->
<g id="node3" class="node"><title>x3</title>
<ellipse fill="none" stroke="#00008b" cx="34" cy="-174" rx="18" ry="18"/>
</g>
<!-- x3&#45;&gt;l1_1 -->
<g id="edge7" class="edge"><title>x3&#45;&gt;l1_1</title>
<path fill="none" stroke="black" d="M46.7242,-160.79C57.8903,-148.208 74.8646,-129.082 87.7914,-114.517"/>
<polygon fill="black" stroke="black" points="90.4738,-116.767 94.494,-106.965 85.2383,-112.121 90.4738,-116.767"/>
</g>
<!-- x3&#45;&gt;l1_2 -->
<g id="edge8" class="edge"><title>x3&#45;&gt;l1_2</title>
<path fill="none" stroke="black" d="M52.1871,-174C60.2105,-174 69.9525,-174 78.9309,-174"/>
<polygon fill="black" stroke="black" points="78.9712,-177.5 88.9712,-174 78.9711,-170.5 78.9712,-177.5"/>
</g>
<!-- x3&#45;&gt;l1_3 -->
<g id="edge9" class="edge"><title>x3&#45;&gt;l1_3</title>
<path fill="none" stroke="black" d="M50.0573,-165.517C59.3764,-160.267 71.5466,-153.41 82.1549,-147.434"/>
<polygon fill="black" stroke="black" points="83.9699,-150.429 90.9644,-142.471 80.534,-144.33 83.9699,-150.429"/>
</g>
<!-- l2_1 -->
<g id="node7" class="node"><title>l2_1</title>
<ellipse fill="none" stroke="magenta" cx="181" cy="-154" rx="18" ry="18"/>
</g>
<!-- l1_1&#45;&gt;l2_1 -->
<g id="edge10" class="edge"><title>l1_1&#45;&gt;l2_1</title>
<path fill="none" stroke="black" d="M121.543,-105.286C132.002,-114.001 146.671,-126.226 158.698,-136.248"/>
<polygon fill="black" stroke="black" points="156.595,-139.052 166.518,-142.765 161.076,-133.674 156.595,-139.052"/>
</g>
<!-- l2_2d -->
<g id="node8" class="node"><title>l2_2d</title>
<ellipse fill="none" stroke="magenta" stroke-dasharray="1,5" cx="181" cy="-114" rx="18" ry="18"/>
</g>
<!-- l1_1&#45;&gt;l2_2d -->
<g id="edge11" class="edge"><title>l1_1&#45;&gt;l2_2d</title>
<path fill="none" stroke="black" stroke-dasharray="1,5" d="M124.699,-98.6387C133.241,-101.011 143.842,-103.956 153.469,-106.63"/>
<polygon fill="black" stroke="black" points="152.819,-110.082 163.391,-109.386 154.693,-103.338 152.819,-110.082"/>
</g>
<!-- l2_3 -->
<g id="node9" class="node"><title>l2_3</title>
<ellipse fill="none" stroke="magenta" cx="181" cy="-74" rx="18" ry="18"/>
</g>
<!-- l1_1&#45;&gt;l2_3 -->
<g id="edge12" class="edge"><title>l1_1&#45;&gt;l2_3</title>
<path fill="none" stroke="black" d="M124.699,-89.3613C133.241,-86.9885 143.842,-84.044 153.469,-81.3696"/>
<polygon fill="black" stroke="black" points="154.693,-84.6623 163.391,-78.6135 152.819,-77.9177 154.693,-84.6623"/>
</g>
<!-- l2_4d -->
<g id="node10" class="node"><title>l2_4d</title>
<ellipse fill="none" stroke="magenta" stroke-dasharray="1,5" cx="181" cy="-34" rx="18" ry="18"/>
</g>
<!-- l1_1&#45;&gt;l2_4d -->
<g id="edge13" class="edge"><title>l1_1&#45;&gt;l2_4d</title>
<path fill="none" stroke="black" stroke-dasharray="1,5" d="M121.543,-82.7145C132.002,-73.9987 146.671,-61.7742 158.698,-51.7516"/>
<polygon fill="black" stroke="black" points="161.076,-54.3256 166.518,-45.2349 156.595,-48.948 161.076,-54.3256"/>
</g>
<!-- l2_5 -->
<g id="node11" class="node"><title>l2_5</title>
<ellipse fill="none" stroke="magenta" cx="181" cy="-234" rx="18" ry="18"/>
</g>
<!-- l1_1&#45;&gt;l2_5 -->
<g id="edge14" class="edge"><title>l1_1&#45;&gt;l2_5</title>
<path fill="none" stroke="black" d="M116.119,-109.788C128.543,-133.945 152.381,-180.297 167.164,-209.04"/>
<polygon fill="black" stroke="black" points="164.114,-210.763 171.8,-218.055 170.339,-207.562 164.114,-210.763"/>
</g>
<!-- l2_6d -->
<g id="node12" class="node"><title>l2_6d</title>
<ellipse fill="none" stroke="magenta" stroke-dasharray="1,5" cx="181" cy="-194" rx="18" ry="18"/>
</g>
<!-- l1_1&#45;&gt;l2_6d -->
<g id="edge15" class="edge"><title>l1_1&#45;&gt;l2_6d</title>
<path fill="none" stroke="black" stroke-dasharray="1,5" d="M118.316,-108.328C130.185,-124.813 149.827,-152.093 163.755,-171.437"/>
<polygon fill="black" stroke="black" points="161.02,-173.629 169.703,-179.699 166.701,-169.539 161.02,-173.629"/>
</g>
<!-- l1_2&#45;&gt;l2_1 -->
<g id="edge16" class="edge"><title>l1_2&#45;&gt;l2_1</title>
<path fill="none" stroke="black" d="M124.699,-169.361C133.241,-166.989 143.842,-164.044 153.469,-161.37"/>
<polygon fill="black" stroke="black" points="154.693,-164.662 163.391,-158.614 152.819,-157.918 154.693,-164.662"/>
</g>
<!-- l1_2&#45;&gt;l2_2d -->
<g id="edge17" class="edge"><title>l1_2&#45;&gt;l2_2d</title>
<path fill="none" stroke="black" stroke-dasharray="1,5" d="M121.543,-162.714C132.002,-153.999 146.671,-141.774 158.698,-131.752"/>
<polygon fill="black" stroke="black" points="161.076,-134.326 166.518,-125.235 156.595,-128.948 161.076,-134.326"/>
</g>
<!-- l1_2&#45;&gt;l2_3 -->
<g id="edge18" class="edge"><title>l1_2&#45;&gt;l2_3</title>
<path fill="none" stroke="black" d="M118.316,-159.672C130.185,-143.187 149.827,-115.907 163.755,-96.563"/>
<polygon fill="black" stroke="black" points="166.701,-98.4614 169.703,-88.301 161.02,-94.3713 166.701,-98.4614"/>
</g>
<!-- l1_2&#45;&gt;l2_4d -->
<g id="edge19" class="edge"><title>l1_2&#45;&gt;l2_4d</title>
<path fill="none" stroke="black" stroke-dasharray="1,5" d="M116.119,-158.212C128.543,-134.055 152.381,-87.7028 167.164,-58.9598"/>
<polygon fill="black" stroke="black" points="170.339,-60.4384 171.8,-49.9447 164.114,-57.2369 170.339,-60.4384"/>
</g>
<!-- l1_2&#45;&gt;l2_5 -->
<g id="edge20" class="edge"><title>l1_2&#45;&gt;l2_5</title>
<path fill="none" stroke="black" d="M121.543,-185.286C132.002,-194.001 146.671,-206.226 158.698,-216.248"/>
<polygon fill="black" stroke="black" points="156.595,-219.052 166.518,-222.765 161.076,-213.674 156.595,-219.052"/>
</g>
<!-- l1_2&#45;&gt;l2_6d -->
<g id="edge21" class="edge"><title>l1_2&#45;&gt;l2_6d</title>
<path fill="none" stroke="black" stroke-dasharray="1,5" d="M124.699,-178.639C133.241,-181.011 143.842,-183.956 153.469,-186.63"/>
<polygon fill="black" stroke="black" points="152.819,-190.082 163.391,-189.386 154.693,-183.338 152.819,-190.082"/>
</g>
<!-- l1_3&#45;&gt;l2_1 -->
<g id="edge22" class="edge"><title>l1_3&#45;&gt;l2_1</title>
<path fill="none" stroke="black" d="M124.699,-138.639C133.241,-141.011 143.842,-143.956 153.469,-146.63"/>
<polygon fill="black" stroke="black" points="152.819,-150.082 163.391,-149.386 154.693,-143.338 152.819,-150.082"/>
</g>
<!-- l1_3&#45;&gt;l2_2d -->
<g id="edge23" class="edge"><title>l1_3&#45;&gt;l2_2d</title>
<path fill="none" stroke="black" stroke-dasharray="1,5" d="M124.699,-129.361C133.241,-126.989 143.842,-124.044 153.469,-121.37"/>
<polygon fill="black" stroke="black" points="154.693,-124.662 163.391,-118.614 152.819,-117.918 154.693,-124.662"/>
</g>
<!-- l1_3&#45;&gt;l2_3 -->
<g id="edge24" class="edge"><title>l1_3&#45;&gt;l2_3</title>
<path fill="none" stroke="black" d="M121.543,-122.714C132.002,-113.999 146.671,-101.774 158.698,-91.7516"/>
<polygon fill="black" stroke="black" points="161.076,-94.3256 166.518,-85.2349 156.595,-88.948 161.076,-94.3256"/>
</g>
<!-- l1_3&#45;&gt;l2_4d -->
<g id="edge25" class="edge"><title>l1_3&#45;&gt;l2_4d</title>
<path fill="none" stroke="black" stroke-dasharray="1,5" d="M118.316,-119.672C130.185,-103.187 149.827,-75.9069 163.755,-56.563"/>
<polygon fill="black" stroke="black" points="166.701,-58.4614 169.703,-48.301 161.02,-54.3713 166.701,-58.4614"/>
</g>
<!-- l1_3&#45;&gt;l2_5 -->
<g id="edge26" class="edge"><title>l1_3&#45;&gt;l2_5</title>
<path fill="none" stroke="black" d="M118.316,-148.328C130.185,-164.813 149.827,-192.093 163.755,-211.437"/>
<polygon fill="black" stroke="black" points="161.02,-213.629 169.703,-219.699 166.701,-209.539 161.02,-213.629"/>
</g>
<!-- l1_3&#45;&gt;l2_6d -->
<g id="edge27" class="edge"><title>l1_3&#45;&gt;l2_6d</title>
<path fill="none" stroke="black" stroke-dasharray="1,5" d="M121.543,-145.286C132.002,-154.001 146.671,-166.226 158.698,-176.248"/>
<polygon fill="black" stroke="black" points="156.595,-179.052 166.518,-182.765 161.076,-173.674 156.595,-179.052"/>
</g>
<!-- o1 -->
<g id="node13" class="node"><title>o1</title>
<ellipse fill="none" stroke="black" cx="254" cy="-154" rx="18" ry="18"/>
</g>
<!-- l2_1&#45;&gt;o1 -->
<g id="edge28" class="edge"><title>l2_1&#45;&gt;o1</title>
<path fill="none" stroke="black" d="M199.187,-154C207.211,-154 216.953,-154 225.931,-154"/>
<polygon fill="black" stroke="black" points="225.971,-157.5 235.971,-154 225.971,-150.5 225.971,-157.5"/>
</g>
<!-- o2 -->
<g id="node14" class="node"><title>o2</title>
<ellipse fill="none" stroke="black" cx="254" cy="-114" rx="18" ry="18"/>
</g>
<!-- l2_1&#45;&gt;o2 -->
<g id="edge29" class="edge"><title>l2_1&#45;&gt;o2</title>
<path fill="none" stroke="black" d="M197.057,-145.517C206.376,-140.267 218.547,-133.41 229.155,-127.434"/>
<polygon fill="black" stroke="black" points="230.97,-130.429 237.964,-122.471 227.534,-124.33 230.97,-130.429"/>
</g>
<!-- l2_2d&#45;&gt;o1 -->
<g id="edge30" class="edge"><title>l2_2d&#45;&gt;o1</title>
<path fill="none" stroke="black" stroke-dasharray="1,5" d="M197.057,-122.483C206.376,-127.733 218.547,-134.59 229.155,-140.566"/>
<polygon fill="black" stroke="black" points="227.534,-143.67 237.964,-145.529 230.97,-137.571 227.534,-143.67"/>
</g>
<!-- l2_2d&#45;&gt;o2 -->
<g id="edge31" class="edge"><title>l2_2d&#45;&gt;o2</title>
<path fill="none" stroke="black" stroke-dasharray="1,5" d="M199.187,-114C207.211,-114 216.953,-114 225.931,-114"/>
<polygon fill="black" stroke="black" points="225.971,-117.5 235.971,-114 225.971,-110.5 225.971,-117.5"/>
</g>
<!-- l2_3&#45;&gt;o1 -->
<g id="edge32" class="edge"><title>l2_3&#45;&gt;o1</title>
<path fill="none" stroke="black" d="M193.724,-87.2104C204.89,-99.7919 221.865,-118.918 234.791,-133.483"/>
<polygon fill="black" stroke="black" points="232.238,-135.879 241.494,-141.035 237.474,-131.233 232.238,-135.879"/>
</g>
<!-- l2_3&#45;&gt;o2 -->
<g id="edge33" class="edge"><title>l2_3&#45;&gt;o2</title>
<path fill="none" stroke="black" d="M197.057,-82.483C206.376,-87.7332 218.547,-94.5896 229.155,-100.566"/>
<polygon fill="black" stroke="black" points="227.534,-103.67 237.964,-105.529 230.97,-97.5714 227.534,-103.67"/>
</g>
<!-- l2_4d&#45;&gt;o1 -->
<g id="edge34" class="edge"><title>l2_4d&#45;&gt;o1</title>
<path fill="none" stroke="black" stroke-dasharray="1,5" d="M190.992,-49.1981C203.049,-69.5756 224.583,-105.971 238.831,-130.053"/>
<polygon fill="black" stroke="black" points="235.976,-132.101 244.081,-138.925 242.001,-128.537 235.976,-132.101"/>
</g>
<!-- l2_4d&#45;&gt;o2 -->
<g id="edge35" class="edge"><title>l2_4d&#45;&gt;o2</title>
<path fill="none" stroke="black" stroke-dasharray="1,5" d="M193.724,-47.2104C204.89,-59.7919 221.865,-78.9178 234.791,-93.4832"/>
<polygon fill="black" stroke="black" points="232.238,-95.8794 241.494,-101.035 237.474,-91.2329 232.238,-95.8794"/>
</g>
<!-- l2_5&#45;&gt;o1 -->
<g id="edge36" class="edge"><title>l2_5&#45;&gt;o1</title>
<path fill="none" stroke="black" d="M193.724,-220.79C204.89,-208.208 221.865,-189.082 234.791,-174.517"/>
<polygon fill="black" stroke="black" points="237.474,-176.767 241.494,-166.965 232.238,-172.121 237.474,-176.767"/>
</g>
<!-- l2_5&#45;&gt;o2 -->
<g id="edge37" class="edge"><title>l2_5&#45;&gt;o2</title>
<path fill="none" stroke="black" d="M190.992,-218.802C203.049,-198.424 224.583,-162.029 238.831,-137.947"/>
<polygon fill="black" stroke="black" points="242.001,-139.463 244.081,-129.075 235.976,-135.899 242.001,-139.463"/>
</g>
<!-- l2_6d&#45;&gt;o1 -->
<g id="edge38" class="edge"><title>l2_6d&#45;&gt;o1</title>
<path fill="none" stroke="black" stroke-dasharray="1,5" d="M197.057,-185.517C206.376,-180.267 218.547,-173.41 229.155,-167.434"/>
<polygon fill="black" stroke="black" points="230.97,-170.429 237.964,-162.471 227.534,-164.33 230.97,-170.429"/>
</g>
<!-- l2_6d&#45;&gt;o2 -->
<g id="edge39" class="edge"><title>l2_6d&#45;&gt;o2</title>
<path fill="none" stroke="black" stroke-dasharray="1,5" d="M193.724,-180.79C204.89,-168.208 221.865,-149.082 234.791,-134.517"/>
<polygon fill="black" stroke="black" points="237.474,-136.767 241.494,-126.965 232.238,-132.121 237.474,-136.767"/>
</g>
</g>
</svg>
