<?xml version="1.0" encoding="UTF-8" standalone="no"?>
<!DOCTYPE svg PUBLIC "-//W3C//DTD SVG 1.1//EN"
 "http://www.w3.org/Graphics/SVG/1.1/DTD/svg11.dtd">
<!-- Generated by graphviz version 2.38.0 (20140413.2041)
 -->
<!-- Title: G Pages: 1 -->
<svg width="286pt" height="221pt"
 viewBox="0.00 0.00 285.60 221.00" xmlns="http://www.w3.org/2000/svg" xmlns:xlink="http://www.w3.org/1999/xlink">
<g id="graph0" class="graph" transform="scale(1 1) rotate(0) translate(4 217)">
<title>G</title>
<polygon fill="white" stroke="none" points="-4,4 -4,-217 281.6,-217 281.6,4 -4,4"/>
<g id="clust1" class="cluster"><title>cluster_0</title>
<polygon fill="none" stroke="white" points="0,-66 0,-127 49.6,-127 49.6,-66 0,-66"/>
<text text-anchor="middle" x="24.8" y="-110.4" font-family="Times,serif" font-size="14.00">inputs</text>
</g>
<g id="clust2" class="cluster"><title>cluster_1</title>
<polygon fill="none" stroke="white" points="69.6,-18 69.6,-175 123.6,-175 123.6,-18 69.6,-18"/>
<text text-anchor="middle" x="96.6" y="-158.4" font-family="Times,serif" font-size="14.00">layer 1</text>
</g>
<g id="clust3" class="cluster"><title>cluster_2</title>
<polygon fill="none" stroke="white" points="143.6,-8 143.6,-205 197.6,-205 197.6,-8 143.6,-8"/>
<text text-anchor="middle" x="170.6" y="-188.4" font-family="Times,serif" font-size="14.00">layer 2</text>
</g>
<g id="clust4" class="cluster"><title>cluster_3</title>
<polygon fill="none" stroke="white" points="217.6,-68 217.6,-145 269.6,-145 269.6,-68 217.6,-68"/>
<text text-anchor="middle" x="243.6" y="-128.4" font-family="Times,serif" font-size="14.00">output</text>
</g>
<!-- x1 -->
<g id="node1" class="node"><title>x1</title>
<ellipse fill="#00008b" stroke="#00008b" cx="24.8" cy="-84" rx="1.8" ry="1.8"/>
</g>
<!-- l1_1 -->
<g id="node4" class="node"><title>l1_1</title>
<ellipse fill="none" stroke="cyan" cx="96.6" cy="-44" rx="18" ry="18"/>
</g>
<!-- x1&#45;&gt;l1_1 -->
<g id="edge1" class="edge"><title>x1&#45;&gt;l1_1</title>
<path fill="none" stroke="black" d="M26.5839,-83.5508C31.0224,-81.0072 53.4437,-68.1584 71.5441,-57.7856"/>
<polygon fill="black" stroke="black" points="73.5614,-60.6636 80.4974,-52.6548 70.0809,-54.5902 73.5614,-60.6636"/>
</g>
<!-- l1_2 -->
<g id="node5" class="node"><title>l1_2</title>
<ellipse fill="none" stroke="cyan" cx="96.6" cy="-124" rx="18" ry="18"/>
</g>
<!-- x1&#45;&gt;l1_2 -->
<g id="edge2" class="edge"><title>x1&#45;&gt;l1_2</title>
<path fill="none" stroke="black" d="M26.5839,-84.4492C31.0224,-86.9928 53.4437,-99.8416 71.5441,-110.214"/>
<polygon fill="black" stroke="black" points="70.0809,-113.41 80.4974,-115.345 73.5614,-107.336 70.0809,-113.41"/>
</g>
<!-- l1_3 -->
<g id="node6" class="node"><title>l1_3</title>
<ellipse fill="none" stroke="cyan" cx="96.6" cy="-84" rx="18" ry="18"/>
</g>
<!-- x1&#45;&gt;l1_3 -->
<g id="edge3" class="edge"><title>x1&#45;&gt;l1_3</title>
<path fill="none" stroke="black" d="M26.7867,-84C31.3699,-84 51.0836,-84 68.2427,-84"/>
<polygon fill="black" stroke="black" points="68.4384,-87.5001 78.4384,-84 68.4384,-80.5001 68.4384,-87.5001"/>
</g>
<!-- x2 -->
<g id="node2" class="node"><title>x2</title>
<ellipse fill="#00008b" stroke="#00008b" cx="24.8" cy="-76" rx="1.8" ry="1.8"/>
</g>
<!-- x2&#45;&gt;l1_1 -->
<g id="edge4" class="edge"><title>x2&#45;&gt;l1_1</title>
<path fill="none" stroke="black" d="M26.5839,-75.6406C30.9311,-73.6476 52.5292,-63.7459 70.4222,-55.5428"/>
<polygon fill="black" stroke="black" points="72.2169,-58.5704 79.8485,-51.2213 69.2996,-52.2072 72.2169,-58.5704"/>
</g>
<!-- x2&#45;&gt;l1_2 -->
<g id="edge5" class="edge"><title>x2&#45;&gt;l1_2</title>
<path fill="none" stroke="black" d="M26.5839,-76.5391C31.1403,-79.6724 54.648,-95.8382 72.9775,-108.443"/>
<polygon fill="black" stroke="black" points="71.2309,-111.49 81.4539,-114.272 75.1974,-105.722 71.2309,-111.49"/>
</g>
<!-- x2&#45;&gt;l1_3 -->
<g id="edge6" class="edge"><title>x2&#45;&gt;l1_3</title>
<path fill="none" stroke="black" d="M26.7867,-76.1131C31.3699,-76.6384 51.0836,-78.8978 68.2427,-80.8645"/>
<polygon fill="black" stroke="black" points="68.1049,-84.3715 78.4384,-82.0331 68.902,-77.4171 68.1049,-84.3715"/>
</g>
<!-- x3 -->
<g id="node3" class="node"><title>x3</title>
<ellipse fill="#00008b" stroke="#00008b" cx="24.8" cy="-92" rx="1.8" ry="1.8"/>
</g>
<!-- x3&#45;&gt;l1_1 -->
<g id="edge7" class="edge"><title>x3&#45;&gt;l1_1</title>
<path fill="none" stroke="black" d="M26.5839,-91.4609C31.1403,-88.3276 54.648,-72.1618 72.9775,-59.557"/>
<polygon fill="black" stroke="black" points="75.1974,-62.2782 81.4539,-53.728 71.2309,-56.5104 75.1974,-62.2782"/>
</g>
<!-- x3&#45;&gt;l1_2 -->
<g id="edge8" class="edge"><title>x3&#45;&gt;l1_2</title>
<path fill="none" stroke="black" d="M26.5839,-92.3594C30.9311,-94.3524 52.5292,-104.254 70.4222,-112.457"/>
<polygon fill="black" stroke="black" points="69.2996,-115.793 79.8485,-116.779 72.2169,-109.43 69.2996,-115.793"/>
</g>
<!-- x3&#45;&gt;l1_3 -->
<g id="edge9" class="edge"><title>x3&#45;&gt;l1_3</title>
<path fill="none" stroke="black" d="M26.7867,-91.8869C31.3699,-91.3616 51.0836,-89.1022 68.2427,-87.1355"/>
<polygon fill="black" stroke="black" points="68.902,-90.5829 78.4384,-85.9669 68.1049,-83.6285 68.902,-90.5829"/>
</g>
<!-- l2_1 -->
<g id="node7" class="node"><title>l2_1</title>
<ellipse fill="none" stroke="magenta" cx="170.6" cy="-154" rx="18" ry="18"/>
</g>
<!-- l1_1&#45;&gt;l2_1 -->
<g id="edge10" class="edge"><title>l1_1&#45;&gt;l2_1</title>
<path fill="none" stroke="black" d="M107.31,-58.8351C119.401,-77.3077 140.192,-109.072 154.401,-130.78"/>
<polygon fill="black" stroke="black" points="151.639,-132.95 160.044,-139.4 157.495,-129.116 151.639,-132.95"/>
</g>
<!-- l2_2 -->
<g id="node8" class="node"><title>l2_2</title>
<ellipse fill="none" stroke="magenta" cx="170.6" cy="-114" rx="18" ry="18"/>
</g>
<!-- l1_1&#45;&gt;l2_2 -->
<g id="edge11" class="edge"><title>l1_1&#45;&gt;l2_2</title>
<path fill="none" stroke="black" d="M110.141,-56.1931C121.085,-66.8328 137.152,-82.4531 149.826,-94.7749"/>
<polygon fill="black" stroke="black" points="147.593,-97.4853 157.202,-101.947 152.472,-92.4664 147.593,-97.4853"/>
</g>
<!-- l2_3 -->
<g id="node9" class="node"><title>l2_3</title>
<ellipse fill="none" stroke="magenta" cx="170.6" cy="-74" rx="18" ry="18"/>
</g>
<!-- l1_1&#45;&gt;l2_3 -->
<g id="edge12" class="edge"><title>l1_1&#45;&gt;l2_3</title>
<path fill="none" stroke="black" d="M113.579,-50.658C122.621,-54.4254 134.134,-59.2224 144.368,-63.4866"/>
<polygon fill="black" stroke="black" points="143.089,-66.7452 153.666,-67.3606 145.781,-60.2837 143.089,-66.7452"/>
</g>
<!-- l2_4 -->
<g id="node10" class="node"><title>l2_4</title>
<ellipse fill="none" stroke="magenta" cx="170.6" cy="-34" rx="18" ry="18"/>
</g>
<!-- l1_1&#45;&gt;l2_4 -->
<g id="edge13" class="edge"><title>l1_1&#45;&gt;l2_4</title>
<path fill="none" stroke="black" d="M114.663,-41.6301C123.002,-40.4719 133.236,-39.0505 142.602,-37.7497"/>
<polygon fill="black" stroke="black" points="143.236,-41.1953 152.659,-36.3528 142.273,-34.2619 143.236,-41.1953"/>
</g>
<!-- l1_2&#45;&gt;l2_1 -->
<g id="edge14" class="edge"><title>l1_2&#45;&gt;l2_1</title>
<path fill="none" stroke="black" d="M113.579,-130.658C122.621,-134.425 134.134,-139.222 144.368,-143.487"/>
<polygon fill="black" stroke="black" points="143.089,-146.745 153.666,-147.361 145.781,-140.284 143.089,-146.745"/>
</g>
<!-- l1_2&#45;&gt;l2_2 -->
<g id="edge15" class="edge"><title>l1_2&#45;&gt;l2_2</title>
<path fill="none" stroke="black" d="M114.663,-121.63C123.002,-120.472 133.236,-119.051 142.602,-117.75"/>
<polygon fill="black" stroke="black" points="143.236,-121.195 152.659,-116.353 142.273,-114.262 143.236,-121.195"/>
</g>
<!-- l1_2&#45;&gt;l2_3 -->
<g id="edge16" class="edge"><title>l1_2&#45;&gt;l2_3</title>
<path fill="none" stroke="black" d="M111.825,-114.122C121.884,-107.136 135.575,-97.6285 147.105,-89.6216"/>
<polygon fill="black" stroke="black" points="149.187,-92.4367 155.405,-83.8579 145.195,-86.6871 149.187,-92.4367"/>
</g>
<!-- l1_2&#45;&gt;l2_4 -->
<g id="edge17" class="edge"><title>l1_2&#45;&gt;l2_4</title>
<path fill="none" stroke="black" d="M108.535,-110.331C120.059,-95.926 138.386,-73.0176 151.959,-56.0516"/>
<polygon fill="black" stroke="black" points="155.048,-57.7929 158.562,-47.7977 149.582,-53.42 155.048,-57.7929"/>
</g>
<!-- l1_3&#45;&gt;l2_1 -->
<g id="edge18" class="edge"><title>l1_3&#45;&gt;l2_1</title>
<path fill="none" stroke="black" d="M110.141,-96.1931C121.085,-106.833 137.152,-122.453 149.826,-134.775"/>
<polygon fill="black" stroke="black" points="147.593,-137.485 157.202,-141.947 152.472,-132.466 147.593,-137.485"/>
</g>
<!-- l1_3&#45;&gt;l2_2 -->
<g id="edge19" class="edge"><title>l1_3&#45;&gt;l2_2</title>
<path fill="none" stroke="black" d="M113.579,-90.658C122.621,-94.4254 134.134,-99.2224 144.368,-103.487"/>
<polygon fill="black" stroke="black" points="143.089,-106.745 153.666,-107.361 145.781,-100.284 143.089,-106.745"/>
</g>
<!-- l1_3&#45;&gt;l2_3 -->
<g id="edge20" class="edge"><title>l1_3&#45;&gt;l2_3</title>
<path fill="none" stroke="black" d="M114.663,-81.6301C123.002,-80.4719 133.236,-79.0505 142.602,-77.7497"/>
<polygon fill="black" stroke="black" points="143.236,-81.1953 152.659,-76.3528 142.273,-74.2619 143.236,-81.1953"/>
</g>
<!-- l1_3&#45;&gt;l2_4 -->
<g id="edge21" class="edge"><title>l1_3&#45;&gt;l2_4</title>
<path fill="none" stroke="black" d="M111.825,-74.1216C121.884,-67.1365 135.575,-57.6285 147.105,-49.6216"/>
<polygon fill="black" stroke="black" points="149.187,-52.4367 155.405,-43.8579 145.195,-46.6871 149.187,-52.4367"/>
</g>
<!-- o1 -->
<g id="node11" class="node"><title>o1</title>
<ellipse fill="none" stroke="black" cx="243.6" cy="-94" rx="18" ry="18"/>
</g>
<!-- l2_1&#45;&gt;o1 -->
<g id="edge22" class="edge"><title>l2_1&#45;&gt;o1</title>
<path fill="none" stroke="black" d="M184.955,-142.714C195.268,-133.999 209.734,-121.774 221.594,-111.752"/>
<polygon fill="black" stroke="black" points="223.926,-114.363 229.305,-105.235 219.408,-109.016 223.926,-114.363"/>
</g>
<!-- l2_2&#45;&gt;o1 -->
<g id="edge23" class="edge"><title>l2_2&#45;&gt;o1</title>
<path fill="none" stroke="black" d="M188.067,-109.361C196.37,-107.022 206.646,-104.128 216.03,-101.484"/>
<polygon fill="black" stroke="black" points="217.053,-104.833 225.729,-98.7524 215.155,-98.095 217.053,-104.833"/>
</g>
<!-- l2_3&#45;&gt;o1 -->
<g id="edge24" class="edge"><title>l2_3&#45;&gt;o1</title>
<path fill="none" stroke="black" d="M188.067,-78.6387C196.37,-80.9776 206.646,-83.872 216.03,-86.5156"/>
<polygon fill="black" stroke="black" points="215.155,-89.905 225.729,-89.2476 217.053,-83.1673 215.155,-89.905"/>
</g>
<!-- l2_4&#45;&gt;o1 -->
<g id="edge25" class="edge"><title>l2_4&#45;&gt;o1</title>
<path fill="none" stroke="black" d="M184.955,-45.2855C195.268,-54.0013 209.734,-66.2258 221.594,-76.2484"/>
<polygon fill="black" stroke="black" points="219.408,-78.9837 229.305,-82.7651 223.926,-73.6371 219.408,-78.9837"/>
</g>
</g>
</svg>
