<?xml version="1.0" encoding="UTF-8" standalone="no"?>
<!DOCTYPE svg PUBLIC "-//W3C//DTD SVG 1.1//EN"
 "http://www.w3.org/Graphics/SVG/1.1/DTD/svg11.dtd">
<!-- Generated by graphviz version 2.38.0 (20140413.2041)
 -->
<!-- Title: G Pages: 1 -->
<svg width="298pt" height="221pt"
 viewBox="0.00 0.00 298.00 221.00" xmlns="http://www.w3.org/2000/svg" xmlns:xlink="http://www.w3.org/1999/xlink">
<g id="graph0" class="graph" transform="scale(1 1) rotate(0) translate(4 217)">
<title>G</title>
<polygon fill="white" stroke="none" points="-4,4 -4,-217 294,-217 294,4 -4,4"/>
<g id="clust1" class="cluster"><title>cluster_0</title>
<polygon fill="none" stroke="white" points="9.2,-57 9.2,-118 58.8,-118 58.8,-57 9.2,-57"/>
<text text-anchor="middle" x="34" y="-101.4" font-family="Times,serif" font-size="14.00">inputs</text>
</g>
<g id="clust2" class="cluster"><title>cluster_1</title>
<polygon fill="none" stroke="white" points="80,-9 80,-166 134,-166 134,-9 80,-9"/>
<text text-anchor="middle" x="107" y="-149.4" font-family="Times,serif" font-size="14.00">layer 1</text>
</g>
<g id="clust3" class="cluster"><title>cluster_2</title>
<polygon fill="none" stroke="white" points="154,-8 154,-205 208,-205 208,-8 154,-8"/>
<text text-anchor="middle" x="181" y="-188.4" font-family="Times,serif" font-size="14.00">layer 2</text>
</g>
<g id="clust4" class="cluster"><title>cluster_3</title>
<polygon fill="none" stroke="white" points="8,-127 8,-204 60,-204 60,-127 8,-127"/>
<text text-anchor="middle" x="34" y="-187.4" font-family="Times,serif" font-size="14.00">output</text>
</g>
<!-- x1 -->
<g id="node1" class="node"><title>x1</title>
<ellipse fill="#00008b" stroke="#00008b" cx="34" cy="-83" rx="1.8" ry="1.8"/>
</g>
<!-- l1_1 -->
<g id="node4" class="node"><title>l1_1</title>
<ellipse fill="none" stroke="cyan" cx="107" cy="-35" rx="18" ry="18"/>
</g>
<!-- x1&#45;&gt;l1_1 -->
<g id="edge1" class="edge"><title>x1&#45;&gt;l1_1</title>
<path fill="none" stroke="black" d="M35.7974,-82.4609C40.4532,-79.3133 64.5617,-63.0146 83.2425,-50.3854"/>
<polygon fill="black" stroke="black" points="85.2865,-53.2283 91.6107,-44.728 81.366,-47.4292 85.2865,-53.2283"/>
</g>
<!-- l1_2 -->
<g id="node5" class="node"><title>l1_2</title>
<ellipse fill="none" stroke="cyan" cx="107" cy="-115" rx="18" ry="18"/>
</g>
<!-- x1&#45;&gt;l1_2 -->
<g id="edge2" class="edge"><title>x1&#45;&gt;l1_2</title>
<path fill="none" stroke="black" d="M35.7974,-83.3594C40.2656,-85.3732 62.6507,-95.4623 80.9598,-103.714"/>
<polygon fill="black" stroke="black" points="79.7539,-107.01 90.3089,-107.928 82.6302,-100.628 79.7539,-107.01"/>
</g>
<!-- l1_3 -->
<g id="node6" class="node"><title>l1_3</title>
<ellipse fill="none" stroke="cyan" cx="107" cy="-75" rx="18" ry="18"/>
</g>
<!-- x1&#45;&gt;l1_3 -->
<g id="edge3" class="edge"><title>x1&#45;&gt;l1_3</title>
<path fill="none" stroke="black" d="M36.0037,-82.8869C40.6935,-82.3585 60.959,-80.075 78.4856,-78.1002"/>
<polygon fill="black" stroke="black" points="79.3356,-81.5267 88.8808,-76.9289 78.5517,-74.5707 79.3356,-81.5267"/>
</g>
<!-- x2 -->
<g id="node2" class="node"><title>x2</title>
<ellipse fill="#00008b" stroke="#00008b" cx="34" cy="-75" rx="1.8" ry="1.8"/>
</g>
<!-- x2&#45;&gt;l1_1 -->
<g id="edge4" class="edge"><title>x2&#45;&gt;l1_1</title>
<path fill="none" stroke="black" d="M35.7974,-74.5508C40.3589,-71.9809 63.5934,-58.891 82.1013,-48.464"/>
<polygon fill="black" stroke="black" points="83.9699,-51.4286 90.9644,-43.4707 80.534,-45.3299 83.9699,-51.4286"/>
</g>
<!-- x2&#45;&gt;l1_2 -->
<g id="edge5" class="edge"><title>x2&#45;&gt;l1_2</title>
<path fill="none" stroke="black" d="M35.7974,-75.4492C40.3589,-78.0191 63.5934,-91.109 82.1013,-101.536"/>
<polygon fill="black" stroke="black" points="80.534,-104.67 90.9644,-106.529 83.9699,-98.5714 80.534,-104.67"/>
</g>
<!-- x2&#45;&gt;l1_3 -->
<g id="edge6" class="edge"><title>x2&#45;&gt;l1_3</title>
<path fill="none" stroke="black" d="M36.0037,-75C40.6935,-75 60.959,-75 78.4856,-75"/>
<polygon fill="black" stroke="black" points="78.8808,-78.5001 88.8808,-75 78.8807,-71.5001 78.8808,-78.5001"/>
</g>
<!-- x3 -->
<g id="node3" class="node"><title>x3</title>
<ellipse fill="#00008b" stroke="#00008b" cx="34" cy="-67" rx="1.8" ry="1.8"/>
</g>
<!-- x3&#45;&gt;l1_1 -->
<g id="edge7" class="edge"><title>x3&#45;&gt;l1_1</title>
<path fill="none" stroke="black" d="M35.7974,-66.6406C40.2656,-64.6268 62.6507,-54.5377 80.9598,-46.2857"/>
<polygon fill="black" stroke="black" points="82.6302,-49.372 90.3089,-42.0721 79.7539,-42.9902 82.6302,-49.372"/>
</g>
<!-- x3&#45;&gt;l1_2 -->
<g id="edge8" class="edge"><title>x3&#45;&gt;l1_2</title>
<path fill="none" stroke="black" d="M35.7974,-67.5391C40.4532,-70.6867 64.5617,-86.9854 83.2425,-99.6146"/>
<polygon fill="black" stroke="black" points="81.366,-102.571 91.6107,-105.272 85.2865,-96.7717 81.366,-102.571"/>
</g>
<!-- x3&#45;&gt;l1_3 -->
<g id="edge9" class="edge"><title>x3&#45;&gt;l1_3</title>
<path fill="none" stroke="black" d="M36.0037,-67.1131C40.6935,-67.6415 60.959,-69.925 78.4856,-71.8998"/>
<polygon fill="black" stroke="black" points="78.5517,-75.4293 88.8808,-73.0711 79.3356,-68.4733 78.5517,-75.4293"/>
</g>
<!-- l2_1 -->
<g id="node7" class="node"><title>l2_1</title>
<ellipse fill="none" stroke="magenta" cx="181" cy="-154" rx="18" ry="18"/>
</g>
<!-- l1_1&#45;&gt;l2_1 -->
<g id="edge10" class="edge"><title>l1_1&#45;&gt;l2_1</title>
<path fill="none" stroke="black" d="M117.119,-50.0714C129.345,-70.2792 151.183,-106.372 165.632,-130.252"/>
<polygon fill="black" stroke="black" points="162.784,-132.307 170.955,-139.051 168.773,-128.683 162.784,-132.307"/>
</g>
<!-- l2_2 -->
<g id="node8" class="node"><title>l2_2</title>
<ellipse fill="none" stroke="magenta" cx="181" cy="-114" rx="18" ry="18"/>
</g>
<!-- l1_1&#45;&gt;l2_2 -->
<g id="edge11" class="edge"><title>l1_1&#45;&gt;l2_2</title>
<path fill="none" stroke="black" d="M119.889,-48.0452C131.213,-60.4695 148.426,-79.3563 161.535,-93.7397"/>
<polygon fill="black" stroke="black" points="159.009,-96.1642 168.332,-101.197 164.183,-91.4489 159.009,-96.1642"/>
</g>
<!-- l2_3 -->
<g id="node9" class="node"><title>l2_3</title>
<ellipse fill="none" stroke="magenta" cx="181" cy="-74" rx="18" ry="18"/>
</g>
<!-- l1_1&#45;&gt;l2_3 -->
<g id="edge12" class="edge"><title>l1_1&#45;&gt;l2_3</title>
<path fill="none" stroke="black" d="M123.269,-43.2709C132.72,-48.3898 145.061,-55.0749 155.819,-60.902"/>
<polygon fill="black" stroke="black" points="154.293,-64.0557 164.753,-65.741 157.627,-57.9006 154.293,-64.0557"/>
</g>
<!-- l2_4 -->
<g id="node10" class="node"><title>l2_4</title>
<ellipse fill="none" stroke="magenta" cx="181" cy="-34" rx="18" ry="18"/>
</g>
<!-- l1_1&#45;&gt;l2_4 -->
<g id="edge13" class="edge"><title>l1_1&#45;&gt;l2_4</title>
<path fill="none" stroke="black" d="M125.063,-34.763C133.193,-34.6501 143.124,-34.5122 152.295,-34.3848"/>
<polygon fill="black" stroke="black" points="152.609,-37.8809 162.559,-34.2422 152.512,-30.8815 152.609,-37.8809"/>
</g>
<!-- l1_2&#45;&gt;l2_1 -->
<g id="edge14" class="edge"><title>l1_2&#45;&gt;l2_1</title>
<path fill="none" stroke="black" d="M123.269,-123.271C132.72,-128.39 145.061,-135.075 155.819,-140.902"/>
<polygon fill="black" stroke="black" points="154.293,-144.056 164.753,-145.741 157.627,-137.901 154.293,-144.056"/>
</g>
<!-- l1_2&#45;&gt;l2_2 -->
<g id="edge15" class="edge"><title>l1_2&#45;&gt;l2_2</title>
<path fill="none" stroke="black" d="M125.063,-114.763C133.193,-114.65 143.124,-114.512 152.295,-114.385"/>
<polygon fill="black" stroke="black" points="152.609,-117.881 162.559,-114.242 152.512,-110.882 152.609,-117.881"/>
</g>
<!-- l1_2&#45;&gt;l2_3 -->
<g id="edge16" class="edge"><title>l1_2&#45;&gt;l2_3</title>
<path fill="none" stroke="black" d="M122.918,-106.505C132.572,-101.007 145.349,-93.7317 156.367,-87.4578"/>
<polygon fill="black" stroke="black" points="158.143,-90.4742 165.101,-82.4843 154.679,-84.3913 158.143,-90.4742"/>
</g>
<!-- l1_2&#45;&gt;l2_4 -->
<g id="edge17" class="edge"><title>l1_2&#45;&gt;l2_4</title>
<path fill="none" stroke="black" d="M119.568,-101.986C130.905,-89.2323 148.362,-69.5933 161.603,-54.6962"/>
<polygon fill="black" stroke="black" points="164.433,-56.7812 168.461,-46.9818 159.201,-52.1306 164.433,-56.7812"/>
</g>
<!-- l1_3&#45;&gt;l2_1 -->
<g id="edge18" class="edge"><title>l1_3&#45;&gt;l2_1</title>
<path fill="none" stroke="black" d="M119.889,-88.0452C131.213,-100.47 148.426,-119.356 161.535,-133.74"/>
<polygon fill="black" stroke="black" points="159.009,-136.164 168.332,-141.197 164.183,-131.449 159.009,-136.164"/>
</g>
<!-- l1_3&#45;&gt;l2_2 -->
<g id="edge19" class="edge"><title>l1_3&#45;&gt;l2_2</title>
<path fill="none" stroke="black" d="M123.269,-83.2709C132.72,-88.3898 145.061,-95.0749 155.819,-100.902"/>
<polygon fill="black" stroke="black" points="154.293,-104.056 164.753,-105.741 157.627,-97.9006 154.293,-104.056"/>
</g>
<!-- l1_3&#45;&gt;l2_3 -->
<g id="edge20" class="edge"><title>l1_3&#45;&gt;l2_3</title>
<path fill="none" stroke="black" d="M125.063,-74.763C133.193,-74.6501 143.124,-74.5122 152.295,-74.3848"/>
<polygon fill="black" stroke="black" points="152.609,-77.8809 162.559,-74.2422 152.512,-70.8815 152.609,-77.8809"/>
</g>
<!-- l1_3&#45;&gt;l2_4 -->
<g id="edge21" class="edge"><title>l1_3&#45;&gt;l2_4</title>
<path fill="none" stroke="black" d="M122.918,-66.5048C132.572,-61.0074 145.349,-53.7317 156.367,-47.4578"/>
<polygon fill="black" stroke="black" points="158.143,-50.4742 165.101,-42.4843 154.679,-44.3913 158.143,-50.4742"/>
</g>
<!-- output -->
<g id="node12" class="node"><title>output</title>
<ellipse fill="none" stroke="black" cx="263" cy="-94" rx="27" ry="18"/>
</g>
<!-- l2_1&#45;&gt;output -->
<g id="edge22" class="edge"><title>l2_1&#45;&gt;output</title>
<path fill="none" stroke="black" d="M195.935,-143.549C206.952,-135.286 222.641,-123.519 235.966,-113.526"/>
<polygon fill="black" stroke="black" points="238.407,-116.069 244.307,-107.269 234.207,-110.469 238.407,-116.069"/>
</g>
<!-- l2_2&#45;&gt;output -->
<g id="edge23" class="edge"><title>l2_2&#45;&gt;output</title>
<path fill="none" stroke="black" d="M198.576,-109.856C207.02,-107.745 217.614,-105.096 227.712,-102.572"/>
<polygon fill="black" stroke="black" points="228.695,-105.934 237.547,-100.113 226.997,-99.1431 228.695,-105.934"/>
</g>
<!-- l2_3&#45;&gt;output -->
<g id="edge24" class="edge"><title>l2_3&#45;&gt;output</title>
<path fill="none" stroke="black" d="M198.576,-78.144C207.02,-80.255 217.614,-82.9035 227.712,-85.4281"/>
<polygon fill="black" stroke="black" points="226.997,-88.8569 237.547,-87.8868 228.695,-82.0659 226.997,-88.8569"/>
</g>
<!-- l2_4&#45;&gt;output -->
<g id="edge25" class="edge"><title>l2_4&#45;&gt;output</title>
<path fill="none" stroke="black" d="M195.935,-44.4512C206.952,-52.7138 222.641,-64.4806 235.966,-74.4741"/>
<polygon fill="black" stroke="black" points="234.207,-77.5305 244.307,-80.7306 238.407,-71.9305 234.207,-77.5305"/>
</g>
<!-- o1 -->
<g id="node11" class="node"><title>o1</title>
<ellipse fill="none" stroke="black" cx="34" cy="-153" rx="18" ry="18"/>
</g>
</g>
</svg>
